<svg id="patient_4_" data-name="patient (4)" xmlns="http://www.w3.org/2000/svg" width="17.658" height="12.836" viewBox="0 0 17.658 12.836">
  <path id="Path_7840" data-name="Path 7840" d="M23.444,89.744H8.718a1.207,1.207,0,0,1-1.207-1.207v-9.9a1.207,1.207,0,0,1,1.207-1.207H23.444a1.207,1.207,0,0,1,1.207,1.207v9.9A1.207,1.207,0,0,1,23.444,89.744Z" transform="translate(-7.252 -77.167)" fill="#3ad29f"/>
  <path id="Path_7841" data-name="Path 7841" d="M85.633,142.538H76.29a.414.414,0,0,1-.414-.414V136.9a.414.414,0,0,1,.414-.414h9.343a.414.414,0,0,1,.414.414v5.224A.414.414,0,0,1,85.633,142.538Z" transform="translate(-73.259 -134.19)" fill="#c1e2ff"/>
  <path id="Path_7842" data-name="Path 7842" d="M85.632,136.486h-.706V141a.414.414,0,0,1-.414.415H75.876v.706a.414.414,0,0,0,.414.415h9.342a.414.414,0,0,0,.414-.415V136.9a.415.415,0,0,0-.414-.414Z" transform="translate(-73.259 -134.19)" fill="#89c6fc"/>
  <path id="Path_7843" data-name="Path 7843" d="M23.442,77.426h-.773v9.127a1.209,1.209,0,0,1-1.209,1.209H7.511v.773A1.209,1.209,0,0,0,8.72,89.744H23.442a1.209,1.209,0,0,0,1.209-1.209v-9.9A1.209,1.209,0,0,0,23.442,77.426Z" transform="translate(-7.252 -77.167)" fill="#139b6d"/>
  <ellipse id="Ellipse_284" data-name="Ellipse 284" cx="0.797" cy="0.797" rx="0.797" ry="0.797" transform="translate(8.358 9.546)" fill="#89c6fc"/>
  <ellipse id="Ellipse_285" data-name="Ellipse 285" cx="0.797" cy="0.797" rx="0.797" ry="0.797" transform="translate(2.542 9.546)" fill="#fc8086"/>
  <ellipse id="Ellipse_286" data-name="Ellipse 286" cx="0.797" cy="0.797" rx="0.797" ry="0.797" transform="translate(4.519 9.546)" fill="#fbd307"/>
  <path id="Path_7847" data-name="Path 7847" d="M17.4,81.024a.259.259,0,0,0-.259.259.951.951,0,0,1-.95.95H1.468a.951.951,0,0,1-.95-.95v-9.9a.951.951,0,0,1,.95-.95H9.706a.259.259,0,1,0,0-.518H1.468A1.47,1.47,0,0,0,0,71.383v9.9a1.47,1.47,0,0,0,1.468,1.468H16.19a1.47,1.47,0,0,0,1.468-1.468A.259.259,0,0,0,17.4,81.024Z" transform="translate(0 -69.915)"/>
  <path id="Path_7848" data-name="Path 7848" d="M315.181,69.915H309.93a.259.259,0,0,0,0,.518h5.251a.951.951,0,0,1,.95.95V80.04a.259.259,0,0,0,.518,0V71.383A1.47,1.47,0,0,0,315.181,69.915Z" transform="translate(-298.991 -69.915)"/>
  <path id="Path_7849" data-name="Path 7849" d="M79.054,134.87v-5.223a.674.674,0,0,0-.674-.674H71.164a.259.259,0,0,0,0,.518H78.38a.156.156,0,0,1,.155.155v2.218H77.479l-.41-.41a.363.363,0,0,0-.513,0l-1.086,1.086-.416-.417a.363.363,0,0,0-.513,0l-.7.7-1.866-1.866a.363.363,0,0,0-.513,0l-.9.9H68.883v-2.218a.156.156,0,0,1,.155-.155h.837a.259.259,0,0,0,0-.518h-.837a.674.674,0,0,0-.674.674v5.223a.674.674,0,0,0,.674.674H78.38a.674.674,0,0,0,.674-.674Zm-10.171,0v-2.487h1.736a.36.36,0,0,0,.256-.106l.839-.839,1.866,1.866a.363.363,0,0,0,.513,0l.7-.7.417.417a.363.363,0,0,0,.513,0l1.086-1.086.346.346a.36.36,0,0,0,.256.106h1.121v2.487a.156.156,0,0,1-.155.155H69.039a.156.156,0,0,1-.155-.156Z" transform="translate(-66.007 -126.936)"/>
  <path id="Path_7850" data-name="Path 7850" d="M234.841,340.241a1.056,1.056,0,1,0,1.056-1.056A1.057,1.057,0,0,0,234.841,340.241Zm1.593,0a.537.537,0,1,1-.538-.538A.538.538,0,0,1,236.434,340.241Z" transform="translate(-226.742 -329.898)"/>
  <path id="Path_7851" data-name="Path 7851" d="M68.225,339.871a1.056,1.056,0,1,0,0,.739,1.056,1.056,0,1,0,0-.739Zm-.989.907a.538.538,0,1,1,.537-.538A.538.538,0,0,1,67.237,340.778Zm2.515-.538a.538.538,0,1,1-.538-.538A.538.538,0,0,1,69.752,340.241Z" transform="translate(-63.899 -329.898)"/>
</svg>
