<svg xmlns="http://www.w3.org/2000/svg" width="6.673" height="6.68" viewBox="0 0 6.673 6.68">
  <g id="drugs_2_" data-name="drugs (2)" transform="translate(0 0)">
    <g id="Group_1987" data-name="Group 1987" transform="translate(2.213 0)">
      <g id="Group_1986" data-name="Group 1986" transform="translate(0 0)">
        <path id="Path_2390" data-name="Path 2390" d="M173.859.514a1.764,1.764,0,0,0-2.491,0l-1.452,1.452,1.649,1.649a1.927,1.927,0,0,1,2.013-.3l.282-.308A1.764,1.764,0,0,0,173.859.514Z" transform="translate(-169.915 0.001)" fill="#00b050"/>
      </g>
    </g>
    <g id="Group_1989" data-name="Group 1989" transform="translate(0 2.245)">
      <g id="Group_1988" data-name="Group 1988" transform="translate(0)">
        <path id="Path_2391" data-name="Path 2391" d="M3.851,173.659,2.2,172.008.778,173.431a1.771,1.771,0,0,0,2.5,2.5l.288-.29a1.927,1.927,0,0,1,.28-1.986Z" transform="translate(-0.263 -172.008)" fill="#00b050"/>
      </g>
    </g>
    <g id="Group_1991" data-name="Group 1991" transform="translate(3.541 3.568)">
      <g id="Group_1990" data-name="Group 1990">
        <path id="Path_2392" data-name="Path 2392" d="M271.7,275.024a1.561,1.561,0,0,0,1.37,1.546v-3.092A1.561,1.561,0,0,0,271.7,275.024Z" transform="translate(-271.703 -273.478)" fill="#00b050"/>
      </g>
    </g>
    <g id="Group_1993" data-name="Group 1993" transform="translate(5.303 3.568)">
      <g id="Group_1992" data-name="Group 1992">
        <path id="Path_2393" data-name="Path 2393" d="M406.722,273.478v3.092a1.557,1.557,0,0,0,0-3.092Z" transform="translate(-406.722 -273.478)" fill="#00b050"/>
      </g>
    </g>
  </g>
</svg>
